0
SECTION
2
HEADER
9
$ACADVER
1
AC1015
9
$INSUNITS
70
4
0
ENDSEC
0
SECTION
2
TABLES
0
TABLE
2
LAYER
70
10
0
LAYER
2
0
70
0
62
7
6
CONTINUOUS
0
LAYER
2
墙体
70
0
62
1
6
CONTINUOUS
0
LAYER
2
门窗
70
0
62
3
6
CONTINUOUS
0
LAYER
2
家具
70
0
62
5
6
CONTINUOUS
0
LAYER
2
标注
70
0
62
2
6
CONTINUOUS
0
ENDTAB
0
ENDSEC
0
SECTION
2
ENTITIES
0
LINE
8
墙体
62
1
10
0.0
20
0.0
30
0.0
11
1000.0
21
0.0
31
0.0
0
LINE
8
墙体
62
1
10
1000.0
20
0.0
30
0.0
11
1000.0
21
800.0
31
0.0
0
LINE
8
墙体
62
1
10
1000.0
20
800.0
30
0.0
11
0.0
21
800.0
31
0.0
0
LINE
8
墙体
62
1
10
0.0
20
800.0
30
0.0
11
0.0
21
0.0
31
0.0
0
LINE
8
墙体
62
1
10
400.0
20
0.0
30
0.0
11
400.0
21
500.0
31
0.0
0
LINE
8
墙体
62
1
10
400.0
20
500.0
30
0.0
11
600.0
21
500.0
31
0.0
0
LINE
8
墙体
62
1
10
700.0
20
500.0
30
0.0
11
1000.0
21
500.0
31
0.0
0
LINE
8
墙体
62
1
10
0.0
20
500.0
30
0.0
11
300.0
21
500.0
31
0.0
0
LINE
8
门窗
62
3
10
300.0
20
500.0
30
0.0
11
400.0
21
500.0
31
0.0
0
LINE
8
门窗
62
3
10
600.0
20
500.0
30
0.0
11
700.0
21
500.0
31
0.0
0
ARC
8
门窗
62
3
10
300.0
20
500.0
30
0.0
40
100.0
50
270.0
51
360.0
0
ARC
8
门窗
62
3
10
700.0
20
500.0
30
0.0
40
100.0
50
180.0
51
270.0
0
LINE
8
门窗
62
3
10
200.0
20
0.0
30
0.0
11
350.0
21
0.0
31
0.0
0
LINE
8
门窗
62
3
10
200.0
20
0.0
30
0.0
11
200.0
21
20.0
31
0.0
0
LINE
8
门窗
62
3
10
350.0
20
0.0
30
0.0
11
350.0
21
20.0
31
0.0
0
LINE
8
门窗
62
3
10
1000.0
20
200.0
30
0.0
11
1000.0
21
350.0
31
0.0
0
LINE
8
门窗
62
3
10
980.0
20
200.0
30
0.0
11
1000.0
21
200.0
31
0.0
0
LINE
8
门窗
62
3
10
980.0
20
350.0
30
0.0
11
1000.0
21
350.0
31
0.0
0
LINE
8
家具
62
5
10
50.0
20
550.0
30
0.0
11
250.0
21
550.0
31
0.0
0
LINE
8
家具
62
5
10
250.0
20
550.0
30
0.0
11
250.0
21
750.0
31
0.0
0
LINE
8
家具
62
5
10
250.0
20
750.0
30
0.0
11
50.0
21
750.0
31
0.0
0
LINE
8
家具
62
5
10
50.0
20
750.0
30
0.0
11
50.0
21
550.0
31
0.0
0
LINE
8
家具
62
5
10
450.0
20
550.0
30
0.0
11
550.0
21
550.0
31
0.0
0
LINE
8
家具
62
5
10
550.0
20
550.0
30
0.0
11
550.0
21
750.0
31
0.0
0
LINE
8
家具
62
5
10
550.0
20
750.0
30
0.0
11
450.0
21
750.0
31
0.0
0
LINE
8
家具
62
5
10
450.0
20
750.0
30
0.0
11
450.0
21
550.0
31
0.0
0
CIRCLE
8
家具
62
5
10
500.0
20
650.0
30
0.0
40
40.0
0
LINE
8
家具
62
5
10
700.0
20
600.0
30
0.0
11
950.0
21
600.0
31
0.0
0
LINE
8
家具
62
5
10
950.0
20
600.0
30
0.0
11
950.0
21
750.0
31
0.0
0
LINE
8
家具
62
5
10
950.0
20
750.0
30
0.0
11
700.0
21
750.0
31
0.0
0
LINE
8
家具
62
5
10
700.0
20
750.0
30
0.0
11
700.0
21
600.0
31
0.0
0
LINE
8
家具
62
5
10
50.0
20
50.0
30
0.0
11
350.0
21
50.0
31
0.0
0
LINE
8
家具
62
5
10
350.0
20
50.0
30
0.0
11
350.0
21
200.0
31
0.0
0
LINE
8
家具
62
5
10
350.0
20
200.0
30
0.0
11
50.0
21
200.0
31
0.0
0
LINE
8
家具
62
5
10
50.0
20
200.0
30
0.0
11
50.0
21
50.0
31
0.0
0
LINE
8
家具
62
5
10
500.0
20
50.0
30
0.0
11
900.0
21
50.0
31
0.0
0
LINE
8
家具
62
5
10
900.0
20
50.0
30
0.0
11
900.0
21
150.0
31
0.0
0
LINE
8
家具
62
5
10
900.0
20
150.0
30
0.0
11
500.0
21
150.0
31
0.0
0
LINE
8
家具
62
5
10
500.0
20
150.0
30
0.0
11
500.0
21
50.0
31
0.0
0
LINE
8
家具
62
5
10
500.0
20
200.0
30
0.0
11
650.0
21
200.0
31
0.0
0
LINE
8
家具
62
5
10
650.0
20
200.0
30
0.0
11
650.0
21
350.0
31
0.0
0
LINE
8
家具
62
5
10
650.0
20
350.0
30
0.0
11
500.0
21
350.0
31
0.0
0
LINE
8
家具
62
5
10
500.0
20
350.0
30
0.0
11
500.0
21
200.0
31
0.0
0
CIRCLE
8
家具
62
5
10
575.0
20
275.0
30
0.0
40
30.0
0
LINE
8
家具
62
5
10
750.0
20
200.0
30
0.0
11
900.0
21
200.0
31
0.0
0
LINE
8
家具
62
5
10
900.0
20
200.0
30
0.0
11
900.0
21
350.0
31
0.0
0
LINE
8
家具
62
5
10
900.0
20
350.0
30
0.0
11
750.0
21
350.0
31
0.0
0
LINE
8
家具
62
5
10
750.0
20
350.0
30
0.0
11
750.0
21
200.0
31
0.0
0
CIRCLE
8
家具
62
5
10
825.0
20
275.0
30
0.0
40
30.0
0
0
ENDSEC
0
EOF
