0
SECTION
2
HEADER
9
$ACADVER
1
AC1009
9
$INSUNITS
70
4
9
$LIMMIN
10
0.0
20
0.0
9
$LIMMAX
10
100000.0
20
100000.0
0
ENDSEC
0
SECTION
2
TABLES
0
TABLE
2
LAYER
70
7
0
LAYER
2
0
70
0
62
7
6
CONTINUOUS
0
LAYER
2
WALL
70
0
62
7
6
CONTINUOUS
0
LAYER
2
DOOR
70
0
62
3
6
CONTINUOUS
0
LAYER
2
WINDOW
70
0
62
5
6
CONTINUOUS
0
LAYER
2
TEXT
70
0
62
2
6
CONTINUOUS
0
LAYER
2
FURNITURE
70
0
62
6
6
CONTINUOUS
0
LAYER
2
CORRIDOR
70
0
62
4
6
CONTINUOUS
0
ENDTAB
0
ENDSEC
0
SECTION
2
BLOCKS
0
ENDSEC
0
SECTION
2
ENTITIES
0
LINE
5
65
8
WALL
10
0.000000
20
0.000000
30
0.0
11
10000.000000
21
0.000000
31
0.0
0
LINE
5
66
8
WALL
10
10000.000000
20
0.000000
30
0.0
11
10000.000000
21
4000.000000
31
0.0
0
LINE
5
67
8
WALL
10
10000.000000
20
4000.000000
30
0.0
11
0.000000
21
4000.000000
31
0.0
0
LINE
5
68
8
WALL
10
0.000000
20
4000.000000
30
0.0
11
0.000000
21
0.000000
31
0.0
0
LINE
5
69
8
WALL
10
2000.000000
20
0.000000
30
0.0
11
2000.000000
21
4000.000000
31
0.0
0
LINE
5
6A
8
WALL
10
4000.000000
20
0.000000
30
0.0
11
4000.000000
21
4000.000000
31
0.0
0
LINE
5
6B
8
WALL
10
6000.000000
20
0.000000
30
0.0
11
6000.000000
21
4000.000000
31
0.0
0
LINE
5
6C
8
WALL
10
8000.000000
20
0.000000
30
0.0
11
8000.000000
21
4000.000000
31
0.0
0
LINE
5
6D
8
CORRIDOR
10
4000.000000
20
1000.000000
30
0.0
11
6000.000000
21
1000.000000
31
0.0
0
LINE
5
6E
8
CORRIDOR
10
4000.000000
20
3000.000000
30
0.0
11
6000.000000
21
3000.000000
31
0.0
0
ARC
5
6F
8
DOOR
10
3000.000000
20
2000.000000
30
0.0
40
800.000000
50
0.000000
51
90.000000
0
ARC
5
70
8
DOOR
10
5000.000000
20
1000.000000
30
0.0
40
800.000000
50
90.000000
51
180.000000
0
ARC
5
71
8
DOOR
10
5000.000000
20
3000.000000
30
0.0
40
800.000000
50
270.000000
51
360.000000
0
ARC
5
72
8
DOOR
10
7000.000000
20
2000.000000
30
0.0
40
800.000000
50
180.000000
51
270.000000
0
LINE
5
73
8
WINDOW
10
1000.000000
20
3500.000000
30
0.0
11
1800.000000
21
3500.000000
31
0.0
0
LINE
5
74
8
WINDOW
10
1800.000000
20
3500.000000
30
0.0
11
1800.000000
21
3900.000000
31
0.0
0
LINE
5
75
8
WINDOW
10
1800.000000
20
3900.000000
30
0.0
11
1000.000000
21
3900.000000
31
0.0
0
LINE
5
76
8
WINDOW
10
1000.000000
20
3900.000000
30
0.0
11
1000.000000
21
3500.000000
31
0.0
0
LINE
5
77
8
WINDOW
10
3000.000000
20
3500.000000
30
0.0
11
3800.000000
21
3500.000000
31
0.0
0
LINE
5
78
8
WINDOW
10
3800.000000
20
3500.000000
30
0.0
11
3800.000000
21
3900.000000
31
0.0
0
LINE
5
79
8
WINDOW
10
3800.000000
20
3900.000000
30
0.0
11
3000.000000
21
3900.000000
31
0.0
0
LINE
5
7A
8
WINDOW
10
3000.000000
20
3900.000000
30
0.0
11
3000.000000
21
3500.000000
31
0.0
0
LINE
5
7B
8
WINDOW
10
7000.000000
20
3500.000000
30
0.0
11
7800.000000
21
3500.000000
31
0.0
0
LINE
5
7C
8
WINDOW
10
7800.000000
20
3500.000000
30
0.0
11
7800.000000
21
3900.000000
31
0.0
0
LINE
5
7D
8
WINDOW
10
7800.000000
20
3900.000000
30
0.0
11
7000.000000
21
3900.000000
31
0.0
0
LINE
5
7E
8
WINDOW
10
7000.000000
20
3900.000000
30
0.0
11
7000.000000
21
3500.000000
31
0.0
0
LINE
5
7F
8
WINDOW
10
9000.000000
20
3500.000000
30
0.0
11
9800.000000
21
3500.000000
31
0.0
0
LINE
5
80
8
WINDOW
10
9800.000000
20
3500.000000
30
0.0
11
9800.000000
21
3900.000000
31
0.0
0
LINE
5
81
8
WINDOW
10
9800.000000
20
3900.000000
30
0.0
11
9000.000000
21
3900.000000
31
0.0
0
LINE
5
82
8
WINDOW
10
9000.000000
20
3900.000000
30
0.0
11
9000.000000
21
3500.000000
31
0.0
0
TEXT
5
83
8
TEXT
10
1000.000000
20
2000.000000
30
0.0
40
300.000000
1
商铺A
0
TEXT
5
84
8
TEXT
10
3000.000000
20
2000.000000
30
0.0
40
300.000000
1
商铺B
0
TEXT
5
85
8
TEXT
10
5000.000000
20
2000.000000
30
0.0
40
300.000000
1
公共走廊
0
TEXT
5
86
8
TEXT
10
7000.000000
20
2000.000000
30
0.0
40
300.000000
1
商铺C
0
TEXT
5
87
8
TEXT
10
9000.000000
20
2000.000000
30
0.0
40
300.000000
1
商铺D
0
TEXT
5
88
8
TEXT
10
5000.000000
20
3500.000000
30
0.0
40
300.000000
1
休闲区域
0
CIRCLE
5
89
8
FURNITURE
10
4500.000000
20
3500.000000
30
0.0
40
200.000000
0
CIRCLE
5
8A
8
FURNITURE
10
5500.000000
20
3500.000000
30
0.0
40
200.000000
0
LINE
5
8B
8
FURNITURE
10
4800.000000
20
3200.000000
30
0.0
11
5200.000000
21
3200.000000
31
0.0
0
LINE
5
8C
8
FURNITURE
10
5200.000000
20
3200.000000
30
0.0
11
5200.000000
21
3350.000000
31
0.0
0
LINE
5
8D
8
FURNITURE
10
5200.000000
20
3350.000000
30
0.0
11
4800.000000
21
3350.000000
31
0.0
0
LINE
5
8E
8
FURNITURE
10
4800.000000
20
3350.000000
30
0.0
11
4800.000000
21
3200.000000
31
0.0
0
LINE
5
8F
8
WALL
10
4000.000000
20
3000.000000
30
0.0
11
6000.000000
21
3000.000000
31
0.0
0
LINE
5
90
8
WALL
10
4000.000000
20
1000.000000
30
0.0
11
6000.000000
21
1000.000000
31
0.0
0
LWPOLYLINE
5
91
8
CORRIDOR
90
5
70
1
10
4000.000000
20
1000.000000
10
6000.000000
20
1000.000000
10
6000.000000
20
3000.000000
10
4000.000000
20
3000.000000
10
4000.000000
20
1000.000000
0
ENDSEC
0
EOF
