0
SECTION
2
HEADER
9
$ACADVER
1
AC1009
9
$INSUNITS
70
4
9
$LIMMIN
10
0.0
20
0.0
9
$LIMMAX
10
100000.0
20
100000.0
0
ENDSEC
0
SECTION
2
TABLES
0
TABLE
2
LAYER
70
6
0
LAYER
2
0
70
0
62
7
6
CONTINUOUS
0
LAYER
2
WALL
70
0
62
7
6
CONTINUOUS
0
LAYER
2
DOOR
70
0
62
3
6
CONTINUOUS
0
LAYER
2
WINDOW
70
0
62
5
6
CONTINUOUS
0
LAYER
2
TEXT
70
0
62
2
6
CONTINUOUS
0
LAYER
2
FURNITURE
70
0
62
6
6
CONTINUOUS
0
ENDTAB
0
ENDSEC
0
SECTION
2
BLOCKS
0
ENDSEC
0
SECTION
2
ENTITIES
0
LINE
5
65
8
WALL
10
0.000000
20
0.000000
30
0.0
11
3000.000000
21
0.000000
31
0.0
0
LINE
5
66
8
WALL
10
3000.000000
20
0.000000
30
0.0
11
3000.000000
21
29000.000000
31
0.0
0
LINE
5
67
8
WALL
10
3000.000000
20
29000.000000
30
0.0
11
0.000000
21
29000.000000
31
0.0
0
LINE
5
68
8
WALL
10
0.000000
20
29000.000000
30
0.0
11
0.000000
21
0.000000
31
0.0
0
LINE
5
69
8
WALL
10
1100.000000
20
0.000000
30
0.0
11
1100.000000
21
24000.000000
31
0.0
0
LINE
5
6A
8
WALL
10
1900.000000
20
0.000000
30
0.0
11
1900.000000
21
24000.000000
31
0.0
0
LINE
5
6B
8
WALL
10
0.000000
20
24000.000000
30
0.0
11
3000.000000
21
24000.000000
31
0.0
0
LINE
5
6C
8
WALL
10
0.000000
20
2000.000000
30
0.0
11
1100.000000
21
2000.000000
31
0.0
0
LINE
5
6D
8
WALL
10
1900.000000
20
2000.000000
30
0.0
11
3000.000000
21
2000.000000
31
0.0
0
ARC
5
6E
8
DOOR
10
1100.000000
20
1000.000000
30
0.0
40
500.000000
50
0.000000
51
90.000000
0
ARC
5
6F
8
DOOR
10
1900.000000
20
1000.000000
30
0.0
40
500.000000
50
90.000000
51
180.000000
0
LINE
5
70
8
WINDOW
10
0.000000
20
1000.000000
30
0.0
11
0.000000
21
1500.000000
31
0.0
0
LINE
5
71
8
WINDOW
10
200.000000
20
1000.000000
30
0.0
11
200.000000
21
1500.000000
31
0.0
0
LINE
5
72
8
WINDOW
10
3000.000000
20
1000.000000
30
0.0
11
3000.000000
21
1500.000000
31
0.0
0
LINE
5
73
8
WINDOW
10
2800.000000
20
1000.000000
30
0.0
11
2800.000000
21
1500.000000
31
0.0
0
TEXT
5
74
8
TEXT
10
1500.000000
20
12000.000000
30
0.0
40
300.000000
1
公共走廊
0
TEXT
5
75
8
TEXT
10
550.000000
20
1000.000000
30
0.0
40
200.000000
1
商铺1
0
TEXT
5
76
8
TEXT
10
2450.000000
20
1000.000000
30
0.0
40
200.000000
1
商铺2
0
TEXT
5
77
8
TEXT
10
1500.000000
20
26500.000000
30
0.0
40
300.000000
1
休闲区域
0
CIRCLE
5
78
8
FURNITURE
10
1500.000000
20
26500.000000
30
0.0
40
300.000000
0
CIRCLE
5
79
8
FURNITURE
10
800.000000
20
26500.000000
30
0.0
40
250.000000
0
CIRCLE
5
7A
8
FURNITURE
10
2200.000000
20
26500.000000
30
0.0
40
250.000000
0
ENDSEC
0
EOF
