0
SECTION
2
HEADER
9
$ACADVER
1
AC1009
9
$INSUNITS
70
4
9
$LIMMIN
10
0.0
20
0.0
9
$LIMMAX
10
100000.0
20
100000.0
0
ENDSEC
0
SECTION
2
TABLES
0
TABLE
2
LAYER
70
6
0
LAYER
2
0
70
0
62
7
6
CONTINUOUS
0
LAYER
2
WALL
70
0
62
7
6
CONTINUOUS
0
LAYER
2
DOOR
70
0
62
3
6
CONTINUOUS
0
LAYER
2
WINDOW
70
0
62
5
6
CONTINUOUS
0
LAYER
2
TEXT
70
0
62
2
6
CONTINUOUS
0
LAYER
2
FURNITURE
70
0
62
6
6
CONTINUOUS
0
ENDTAB
0
ENDSEC
0
SECTION
2
BLOCKS
0
ENDSEC
0
SECTION
2
ENTITIES
0
LINE
5
65
8
WALL
10
0.000000
20
0.000000
30
0.0
11
10000.000000
21
0.000000
31
0.0
0
LINE
5
66
8
WALL
10
10000.000000
20
0.000000
30
0.0
11
10000.000000
21
3000.000000
31
0.0
0
LINE
5
67
8
WALL
10
10000.000000
20
3000.000000
30
0.0
11
0.000000
21
3000.000000
31
0.0
0
LINE
5
68
8
WALL
10
0.000000
20
3000.000000
30
0.0
11
0.000000
21
0.000000
31
0.0
0
LINE
5
69
8
WALL
10
0.000000
20
1000.000000
30
0.0
11
10000.000000
21
1000.000000
31
0.0
0
LINE
5
6A
8
WALL
10
0.000000
20
2000.000000
30
0.0
11
10000.000000
21
2000.000000
31
0.0
0
LINE
5
6B
8
WALL
10
800.000000
20
0.000000
30
0.0
11
800.000000
21
1000.000000
31
0.0
0
LINE
5
6C
8
WALL
10
1800.000000
20
0.000000
30
0.0
11
1800.000000
21
1000.000000
31
0.0
0
LINE
5
6D
8
WALL
10
2800.000000
20
0.000000
30
0.0
11
2800.000000
21
1000.000000
31
0.0
0
LINE
5
6E
8
WALL
10
3800.000000
20
0.000000
30
0.0
11
3800.000000
21
1000.000000
31
0.0
0
LINE
5
6F
8
WALL
10
4800.000000
20
0.000000
30
0.0
11
4800.000000
21
1000.000000
31
0.0
0
LINE
5
70
8
WALL
10
5800.000000
20
0.000000
30
0.0
11
5800.000000
21
1000.000000
31
0.0
0
LINE
5
71
8
WALL
10
6800.000000
20
0.000000
30
0.0
11
6800.000000
21
1000.000000
31
0.0
0
LINE
5
72
8
WALL
10
7800.000000
20
0.000000
30
0.0
11
7800.000000
21
1000.000000
31
0.0
0
LINE
5
73
8
WALL
10
8800.000000
20
0.000000
30
0.0
11
8800.000000
21
1000.000000
31
0.0
0
LINE
5
74
8
WALL
10
9200.000000
20
0.000000
30
0.0
11
9200.000000
21
1000.000000
31
0.0
0
LINE
5
75
8
WALL
10
800.000000
20
2000.000000
30
0.0
11
800.000000
21
3000.000000
31
0.0
0
LINE
5
76
8
WALL
10
1800.000000
20
2000.000000
30
0.0
11
1800.000000
21
3000.000000
31
0.0
0
LINE
5
77
8
WALL
10
2800.000000
20
2000.000000
30
0.0
11
2800.000000
21
3000.000000
31
0.0
0
LINE
5
78
8
WALL
10
3800.000000
20
2000.000000
30
0.0
11
3800.000000
21
3000.000000
31
0.0
0
LINE
5
79
8
WALL
10
4800.000000
20
2000.000000
30
0.0
11
4800.000000
21
3000.000000
31
0.0
0
LINE
5
7A
8
WALL
10
5800.000000
20
2000.000000
30
0.0
11
5800.000000
21
3000.000000
31
0.0
0
LINE
5
7B
8
WALL
10
6800.000000
20
2000.000000
30
0.0
11
6800.000000
21
3000.000000
31
0.0
0
LINE
5
7C
8
WALL
10
7800.000000
20
2000.000000
30
0.0
11
7800.000000
21
3000.000000
31
0.0
0
LINE
5
7D
8
WALL
10
8800.000000
20
2000.000000
30
0.0
11
8800.000000
21
3000.000000
31
0.0
0
LINE
5
7E
8
WALL
10
9200.000000
20
2000.000000
30
0.0
11
9200.000000
21
3000.000000
31
0.0
0
ARC
5
7F
8
DOOR
10
400.000000
20
1000.000000
30
0.0
40
500.000000
50
0.000000
51
90.000000
0
ARC
5
80
8
DOOR
10
1300.000000
20
1000.000000
30
0.0
40
500.000000
50
0.000000
51
90.000000
0
ARC
5
81
8
DOOR
10
2300.000000
20
1000.000000
30
0.0
40
500.000000
50
0.000000
51
90.000000
0
ARC
5
82
8
DOOR
10
3300.000000
20
1000.000000
30
0.0
40
500.000000
50
0.000000
51
90.000000
0
ARC
5
83
8
DOOR
10
4300.000000
20
1000.000000
30
0.0
40
500.000000
50
0.000000
51
90.000000
0
ARC
5
84
8
DOOR
10
5300.000000
20
1000.000000
30
0.0
40
500.000000
50
0.000000
51
90.000000
0
ARC
5
85
8
DOOR
10
6300.000000
20
1000.000000
30
0.0
40
500.000000
50
0.000000
51
90.000000
0
ARC
5
86
8
DOOR
10
7300.000000
20
1000.000000
30
0.0
40
500.000000
50
0.000000
51
90.000000
0
ARC
5
87
8
DOOR
10
8300.000000
20
1000.000000
30
0.0
40
500.000000
50
0.000000
51
90.000000
0
ARC
5
88
8
DOOR
10
9000.000000
20
1000.000000
30
0.0
40
500.000000
50
0.000000
51
90.000000
0
ARC
5
89
8
DOOR
10
400.000000
20
2000.000000
30
0.0
40
500.000000
50
90.000000
51
180.000000
0
ARC
5
8A
8
DOOR
10
1300.000000
20
2000.000000
30
0.0
40
500.000000
50
90.000000
51
180.000000
0
ARC
5
8B
8
DOOR
10
2300.000000
20
2000.000000
30
0.0
40
500.000000
50
90.000000
51
180.000000
0
ARC
5
8C
8
DOOR
10
3300.000000
20
2000.000000
30
0.0
40
500.000000
50
90.000000
51
180.000000
0
ARC
5
8D
8
DOOR
10
4300.000000
20
2000.000000
30
0.0
40
500.000000
50
90.000000
51
180.000000
0
ARC
5
8E
8
DOOR
10
5300.000000
20
2000.000000
30
0.0
40
500.000000
50
90.000000
51
180.000000
0
ARC
5
8F
8
DOOR
10
6300.000000
20
2000.000000
30
0.0
40
500.000000
50
90.000000
51
180.000000
0
ARC
5
90
8
DOOR
10
7300.000000
20
2000.000000
30
0.0
40
500.000000
50
90.000000
51
180.000000
0
ARC
5
91
8
DOOR
10
8300.000000
20
2000.000000
30
0.0
40
500.000000
50
90.000000
51
180.000000
0
ARC
5
92
8
DOOR
10
9000.000000
20
2000.000000
30
0.0
40
500.000000
50
90.000000
51
180.000000
0
LINE
5
93
8
WINDOW
10
100.000000
20
300.000000
30
0.0
11
700.000000
21
300.000000
31
0.0
0
LINE
5
94
8
WINDOW
10
100.000000
20
400.000000
30
0.0
11
700.000000
21
400.000000
31
0.0
0
LINE
5
95
8
WINDOW
10
9300.000000
20
300.000000
30
0.0
11
9900.000000
21
300.000000
31
0.0
0
LINE
5
96
8
WINDOW
10
9300.000000
20
400.000000
30
0.0
11
9900.000000
21
400.000000
31
0.0
0
TEXT
5
97
8
TEXT
10
400.000000
20
500.000000
30
0.0
40
150.000000
1
商铺1
0
TEXT
5
98
8
TEXT
10
1400.000000
20
500.000000
30
0.0
40
150.000000
1
商铺2
0
TEXT
5
99
8
TEXT
10
2400.000000
20
500.000000
30
0.0
40
150.000000
1
商铺3
0
TEXT
5
9A
8
TEXT
10
3400.000000
20
500.000000
30
0.0
40
150.000000
1
商铺4
0
TEXT
5
9B
8
TEXT
10
4400.000000
20
500.000000
30
0.0
40
150.000000
1
商铺5
0
TEXT
5
9C
8
TEXT
10
5400.000000
20
500.000000
30
0.0
40
150.000000
1
商铺6
0
TEXT
5
9D
8
TEXT
10
6400.000000
20
500.000000
30
0.0
40
150.000000
1
商铺7
0
TEXT
5
9E
8
TEXT
10
7400.000000
20
500.000000
30
0.0
40
150.000000
1
商铺8
0
TEXT
5
9F
8
TEXT
10
8400.000000
20
500.000000
30
0.0
40
150.000000
1
商铺9
0
TEXT
5
A0
8
TEXT
10
9300.000000
20
500.000000
30
0.0
40
150.000000
1
商铺10
0
TEXT
5
A1
8
TEXT
10
400.000000
20
2500.000000
30
0.0
40
150.000000
1
商铺11
0
TEXT
5
A2
8
TEXT
10
1400.000000
20
2500.000000
30
0.0
40
150.000000
1
商铺12
0
TEXT
5
A3
8
TEXT
10
4500.000000
20
1500.000000
30
0.0
40
200.000000
1
公共走廊
0
TEXT
5
A4
8
TEXT
10
7500.000000
20
2500.000000
30
0.0
40
150.000000
1
休闲区域
0
CIRCLE
5
A5
8
FURNITURE
10
7500.000000
20
2200.000000
30
0.0
40
150.000000
0
CIRCLE
5
A6
8
FURNITURE
10
7800.000000
20
2200.000000
30
0.0
40
150.000000
0
CIRCLE
5
A7
8
FURNITURE
10
7500.000000
20
2500.000000
30
0.0
40
150.000000
0
CIRCLE
5
A8
8
FURNITURE
10
7800.000000
20
2500.000000
30
0.0
40
150.000000
0
LINE
5
A9
8
FURNITURE
10
7300.000000
20
2100.000000
30
0.0
11
7800.000000
21
2100.000000
31
0.0
0
LINE
5
AA
8
FURNITURE
10
7800.000000
20
2100.000000
30
0.0
11
7800.000000
21
2600.000000
31
0.0
0
LINE
5
AB
8
FURNITURE
10
7800.000000
20
2600.000000
30
0.0
11
7300.000000
21
2600.000000
31
0.0
0
LINE
5
AC
8
FURNITURE
10
7300.000000
20
2600.000000
30
0.0
11
7300.000000
21
2100.000000
31
0.0
0
ENDSEC
0
EOF
